<svg width="264" height="174" viewBox="0 0 264 174" fill="none" xmlns="http://www.w3.org/2000/svg">
<circle cx="4" cy="4" r="4" fill="#DADADA"/>
<circle cx="4" cy="37" r="4" fill="#DADADA"/>
<circle cx="4" cy="70" r="4" fill="#DADADA"/>
<circle cx="4" cy="103" r="4" fill="#DADADA"/>
<circle cx="4" cy="136" r="4" fill="#DADADA"/>
<circle cx="4" cy="169" r="4" fill="#DADADA"/>
<circle cx="48" cy="4" r="4" fill="#DADADA"/>
<circle cx="48" cy="37" r="4" fill="#DADADA"/>
<circle cx="48" cy="70" r="4" fill="#DADADA"/>
<circle cx="48" cy="103" r="4" fill="#DADADA"/>
<circle cx="48" cy="136" r="4" fill="#DADADA"/>
<circle cx="48" cy="169" r="4" fill="#DADADA"/>
<circle cx="91" cy="4" r="4" fill="#DADADA"/>
<circle cx="91" cy="37" r="4" fill="#DADADA"/>
<circle cx="91" cy="70" r="4" fill="#DADADA"/>
<circle cx="91" cy="103" r="4" fill="#DADADA"/>
<circle cx="91" cy="136" r="4" fill="#DADADA"/>
<circle cx="91" cy="169" r="4" fill="#DADADA"/>
<circle cx="131" cy="4" r="4" fill="#DADADA"/>
<circle cx="131" cy="37" r="4" fill="#DADADA"/>
<circle cx="131" cy="70" r="4" fill="#DADADA"/>
<circle cx="131" cy="103" r="4" fill="#DADADA"/>
<circle cx="131" cy="136" r="4" fill="#DADADA"/>
<circle cx="131" cy="169" r="4" fill="#DADADA"/>
<circle cx="175" cy="4" r="4" fill="#DADADA"/>
<circle cx="175" cy="37" r="4" fill="#DADADA"/>
<circle cx="175" cy="70" r="4" fill="#DADADA"/>
<circle cx="175" cy="103" r="4" fill="#DADADA"/>
<circle cx="175" cy="136" r="4" fill="#DADADA"/>
<circle cx="175" cy="169" r="4" fill="#DADADA"/>
<circle cx="219" cy="4" r="4" fill="#DADADA"/>
<circle cx="219" cy="37" r="4" fill="#DADADA"/>
<circle cx="219" cy="70" r="4" fill="#DADADA"/>
<circle cx="219" cy="103" r="4" fill="#DADADA"/>
<circle cx="219" cy="136" r="4" fill="#DADADA"/>
<circle cx="219" cy="169" r="4" fill="#DADADA"/>
<circle cx="260" cy="5" r="4" fill="#DADADA"/>
<circle cx="260" cy="38" r="4" fill="#DADADA"/>
<circle cx="260" cy="71" r="4" fill="#DADADA"/>
<circle cx="260" cy="104" r="4" fill="#DADADA"/>
<circle cx="260" cy="137" r="4" fill="#DADADA"/>
<circle cx="260" cy="170" r="4" fill="#DADADA"/>
</svg>
