<svg width="259" height="169" viewBox="0 0 259 169" fill="none" xmlns="http://www.w3.org/2000/svg">
<circle cx="1.5" cy="1.5" r="1.5" fill="#DADADA"/>
<circle cx="1.5" cy="34.5" r="1.5" fill="#DADADA"/>
<circle cx="1.5" cy="67.5" r="1.5" fill="#DADADA"/>
<circle cx="1.5" cy="100.5" r="1.5" fill="#DADADA"/>
<circle cx="1.5" cy="133.5" r="1.5" fill="#DADADA"/>
<circle cx="1.5" cy="166.5" r="1.5" fill="#DADADA"/>
<circle cx="45.5" cy="1.5" r="1.5" fill="#DADADA"/>
<circle cx="45.5" cy="34.5" r="1.5" fill="#DADADA"/>
<circle cx="45.5" cy="67.5" r="1.5" fill="#DADADA"/>
<circle cx="45.5" cy="100.5" r="1.5" fill="#DADADA"/>
<circle cx="45.5" cy="133.5" r="1.5" fill="#DADADA"/>
<circle cx="45.5" cy="166.5" r="1.5" fill="#DADADA"/>
<circle cx="88.5" cy="1.5" r="1.5" fill="#DADADA"/>
<circle cx="88.5" cy="34.5" r="1.5" fill="#DADADA"/>
<circle cx="88.5" cy="67.5" r="1.5" fill="#DADADA"/>
<circle cx="88.5" cy="100.5" r="1.5" fill="#DADADA"/>
<circle cx="88.5" cy="133.5" r="1.5" fill="#DADADA"/>
<circle cx="88.5" cy="166.5" r="1.5" fill="#DADADA"/>
<circle cx="128.5" cy="1.5" r="1.5" fill="#DADADA"/>
<circle cx="128.5" cy="34.5" r="1.5" fill="#DADADA"/>
<circle cx="128.5" cy="67.5" r="1.5" fill="#DADADA"/>
<circle cx="128.5" cy="100.5" r="1.5" fill="#DADADA"/>
<circle cx="128.5" cy="133.5" r="1.5" fill="#DADADA"/>
<circle cx="128.5" cy="166.5" r="1.5" fill="#DADADA"/>
<circle cx="172.5" cy="1.5" r="1.5" fill="#DADADA"/>
<circle cx="172.5" cy="34.5" r="1.5" fill="#DADADA"/>
<circle cx="172.5" cy="67.5" r="1.5" fill="#DADADA"/>
<circle cx="172.5" cy="100.5" r="1.5" fill="#DADADA"/>
<circle cx="172.5" cy="133.5" r="1.5" fill="#DADADA"/>
<circle cx="172.5" cy="166.5" r="1.5" fill="#DADADA"/>
<circle cx="216.5" cy="1.5" r="1.5" fill="#DADADA"/>
<circle cx="216.5" cy="34.5" r="1.5" fill="#DADADA"/>
<circle cx="216.5" cy="67.5" r="1.5" fill="#DADADA"/>
<circle cx="216.5" cy="100.5" r="1.5" fill="#DADADA"/>
<circle cx="216.5" cy="133.5" r="1.5" fill="#DADADA"/>
<circle cx="216.5" cy="166.5" r="1.5" fill="#DADADA"/>
<circle cx="257.5" cy="2.5" r="1.5" fill="#DADADA"/>
<circle cx="257.5" cy="35.5" r="1.5" fill="#DADADA"/>
<circle cx="257.5" cy="68.5" r="1.5" fill="#DADADA"/>
<circle cx="257.5" cy="101.5" r="1.5" fill="#DADADA"/>
<circle cx="257.5" cy="134.5" r="1.5" fill="#DADADA"/>
<circle cx="257.5" cy="167.5" r="1.5" fill="#DADADA"/>
</svg>
