<svg width="100%" height="100%" viewBox="0 0 1515 1099" fill="none" xmlns="http://www.w3.org/2000/svg">
<g filter="url(#filter0_d)">
<g clip-path="url(#clip0)">
<line x1="49.1442" y1="236.621" x2="355.356" y2="-20.3209" stroke="#0A0B2E" stroke-width="40"/>
<line x1="12.312" y1="126.293" x2="224.693" y2="-51.9159" stroke="#0A0B2E" stroke-width="70"/>
<line x1="-165.428" y1="674.759" x2="380.203" y2="216.92" stroke="#0A0B2E" stroke-width="20"/>
<line x1="1416.37" y1="1048.31" x2="1518.78" y2="962.374" stroke="#0A0B2E" stroke-width="20"/>
<line x1="1198.75" y1="1096.48" x2="1556.54" y2="796.255" stroke="#0A0B2E" stroke-width="110"/>
<line x1="1411.27" y1="1035.32" x2="1491.48" y2="968.015" stroke="#8D55E9" stroke-width="10" stroke-linecap="round"/>
<line x1="128.062" y1="181.618" x2="287.375" y2="47.9384" stroke="white" stroke-linecap="round"/>
<line x1="1374.14" y1="953.198" x2="1457.97" y2="882.857" stroke="#F4DC5A" stroke-width="51" stroke-linecap="round"/>
<line x1="174.205" y1="223.272" x2="240.54" y2="167.61" stroke="#EC6C5A" stroke-width="55" stroke-linecap="round"/>
<line x1="333.39" y1="879.374" x2="367.669" y2="850.61" stroke="#4CC082" stroke-width="55" stroke-linecap="round"/>
<line x1="1079.22" y1="984.173" x2="1163.11" y2="913.781" stroke="#8D55E9" stroke-width="36" stroke-linecap="round"/>
<line x1="1164.12" y1="1032" x2="1379.97" y2="850.877" stroke="white" stroke-width="2" stroke-linecap="round"/>
<line x1="42.3085" y1="501.243" x2="249.359" y2="327.507" stroke="#4CC082" stroke-width="8" stroke-linecap="round"/>
<line x1="65.3834" y1="129.026" x2="158.19" y2="51.1525" stroke="#F4DC5A" stroke-width="24" stroke-linecap="round"/>
<circle cx="1243" cy="16" r="9" fill="#DADADA"/>
<circle cx="1243" cy="49" r="9" fill="#DADADA"/>
<circle cx="1243" cy="82" r="9" fill="#DADADA"/>
<circle cx="1243" cy="115" r="9" fill="#DADADA"/>
<circle cx="1243" cy="148" r="9" fill="#DADADA"/>
<circle cx="1243" cy="181" r="9" fill="#DADADA"/>
<circle cx="1287" cy="16" r="9" fill="#DADADA"/>
<circle cx="1287" cy="49" r="9" fill="#DADADA"/>
<circle cx="1287" cy="82" r="9" fill="#DADADA"/>
<circle cx="1287" cy="115" r="9" fill="#DADADA"/>
<circle cx="1287" cy="148" r="9" fill="#DADADA"/>
<circle cx="1287" cy="181" r="9" fill="#DADADA"/>
<circle cx="1330" cy="16" r="9" fill="#DADADA"/>
<circle cx="1330" cy="49" r="9" fill="#DADADA"/>
<circle cx="1330" cy="82" r="9" fill="#DADADA"/>
<circle cx="1330" cy="115" r="9" fill="#DADADA"/>
<circle cx="1330" cy="148" r="9" fill="#DADADA"/>
<circle cx="1330" cy="181" r="9" fill="#DADADA"/>
<circle cx="1370" cy="16" r="9" fill="#DADADA"/>
<circle cx="1370" cy="49" r="9" fill="#DADADA"/>
<circle cx="1370" cy="82" r="9" fill="#DADADA"/>
<circle cx="1370" cy="115" r="9" fill="#DADADA"/>
<circle cx="1370" cy="148" r="9" fill="#DADADA"/>
<circle cx="1370" cy="181" r="9" fill="#DADADA"/>
<circle cx="1414" cy="16" r="9" fill="#DADADA"/>
<circle cx="1414" cy="49" r="9" fill="#DADADA"/>
<circle cx="1414" cy="82" r="9" fill="#DADADA"/>
<circle cx="1414" cy="115" r="9" fill="#DADADA"/>
<circle cx="1414" cy="148" r="9" fill="#DADADA"/>
<circle cx="1414" cy="181" r="9" fill="#DADADA"/>
<circle cx="1458" cy="16" r="9" fill="#DADADA"/>
<circle cx="1458" cy="49" r="9" fill="#DADADA"/>
<circle cx="1458" cy="82" r="9" fill="#DADADA"/>
<circle cx="1458" cy="115" r="9" fill="#DADADA"/>
<circle cx="1458" cy="148" r="9" fill="#DADADA"/>
<circle cx="1458" cy="181" r="9" fill="#DADADA"/>
<circle cx="1499" cy="17" r="9" fill="#DADADA"/>
<circle cx="1499" cy="50" r="9" fill="#DADADA"/>
<circle cx="1499" cy="83" r="9" fill="#DADADA"/>
<circle cx="1499" cy="116" r="9" fill="#DADADA"/>
<circle cx="1499" cy="149" r="9" fill="#DADADA"/>
<circle cx="1499" cy="182" r="9" fill="#DADADA"/>
</g>
</g>
<defs>
<filter id="filter0_d" x="0" y="0" width="1515" height="1099" filterUnits="userSpaceOnUse" color-interpolation-filters="sRGB">
<feFlood flood-opacity="0" result="BackgroundImageFix"/>
<feColorMatrix in="SourceAlpha" type="matrix" values="0 0 0 0 0 0 0 0 0 0 0 0 0 0 0 0 0 0 127 0"/>
<feOffset dx="-50" dy="50"/>
<feGaussianBlur stdDeviation="12.5"/>
<feColorMatrix type="matrix" values="0 0 0 0 0 0 0 0 0 0 0 0 0 0 0 0 0 0 0.15 0"/>
<feBlend mode="normal" in2="BackgroundImageFix" result="effect1_dropShadow"/>
<feBlend mode="normal" in="SourceGraphic" in2="effect1_dropShadow" result="shape"/>
</filter>
<clipPath id="clip0">
<rect x="75" width="1440" height="1024" rx="20" fill="white"/>
</clipPath>
</defs>
</svg>
