<svg width="272" height="80" viewBox="0 0 272 80" fill="none" xmlns="http://www.w3.org/2000/svg">
<path d="M8.46094 39.6406V53H3.96094V18.875H16.5469C20.2812 18.875 23.2031 19.8281 25.3125 21.7344C27.4375 23.6406 28.5 26.1641 28.5 29.3047C28.5 32.6172 27.4609 35.1719 25.3828 36.9688C23.3203 38.75 20.3594 39.6406 16.5 39.6406H8.46094ZM8.46094 35.9609H16.5469C18.9531 35.9609 20.7969 35.3984 22.0781 34.2734C23.3594 33.1328 24 31.4922 24 29.3516C24 27.3203 23.3594 25.6953 22.0781 24.4766C20.7969 23.2578 19.0391 22.625 16.8047 22.5781H8.46094V35.9609ZM60.4922 37.0391C60.4922 40.3828 59.9297 43.3047 58.8047 45.8047C57.6797 48.2891 56.0859 50.1875 54.0234 51.5C51.9609 52.8125 49.5547 53.4688 46.8047 53.4688C44.1172 53.4688 41.7344 52.8125 39.6562 51.5C37.5781 50.1719 35.9609 48.2891 34.8047 45.8516C33.6641 43.3984 33.0781 40.5625 33.0469 37.3438V34.8828C33.0469 31.6016 33.6172 28.7031 34.7578 26.1875C35.8984 23.6719 37.5078 21.75 39.5859 20.4219C41.6797 19.0781 44.0703 18.4062 46.7578 18.4062C49.4922 18.4062 51.8984 19.0703 53.9766 20.3984C56.0703 21.7109 57.6797 23.625 58.8047 26.1406C59.9297 28.6406 60.4922 31.5547 60.4922 34.8828V37.0391ZM56.0156 34.8359C56.0156 30.7891 55.2031 27.6875 53.5781 25.5312C51.9531 23.3594 49.6797 22.2734 46.7578 22.2734C43.9141 22.2734 41.6719 23.3594 40.0312 25.5312C38.4062 27.6875 37.5703 30.6875 37.5234 34.5312V37.0391C37.5234 40.9609 38.3438 44.0469 39.9844 46.2969C41.6406 48.5312 43.9141 49.6484 46.8047 49.6484C49.7109 49.6484 51.9609 48.5938 53.5547 46.4844C55.1484 44.3594 55.9688 41.3203 56.0156 37.3672V34.8359ZM79.7578 39.1953H71.7422V53H67.2188V18.875H78.5156C82.3594 18.875 85.3125 19.75 87.375 21.5C89.4531 23.25 90.4922 25.7969 90.4922 29.1406C90.4922 31.2656 89.9141 33.1172 88.7578 34.6953C87.6172 36.2734 86.0234 37.4531 83.9766 38.2344L91.9922 52.7188V53H87.1641L79.7578 39.1953ZM71.7422 35.5156H78.6562C80.8906 35.5156 82.6641 34.9375 83.9766 33.7812C85.3047 32.625 85.9688 31.0781 85.9688 29.1406C85.9688 27.0312 85.3359 25.4141 84.0703 24.2891C82.8203 23.1641 81.0078 22.5938 78.6328 22.5781H71.7422V35.5156ZM118.523 22.5781H107.555V53H103.078V22.5781H92.1328V18.875H118.523V22.5781Z" fill="white"/>
<path d="M127.484 49.3203H143.656V53H122.961V18.875H127.484V49.3203Z" fill="black"/>
<path d="M155.789 53H151.289V18.875H155.789V53ZM190.266 53H185.742L168.562 26.7031V53H164.039V18.875H168.562L185.789 45.2891V18.875H190.266V53ZM206.93 37.1328L202.758 41.4688V53H198.258V18.875H202.758V35.75L217.922 18.875H223.359L209.93 33.9453L224.414 53H219.023L206.93 37.1328ZM238.406 37.7891C234.547 36.6797 231.734 35.3203 229.969 33.7109C228.219 32.0859 227.344 30.0859 227.344 27.7109C227.344 25.0234 228.414 22.8047 230.555 21.0547C232.711 19.2891 235.508 18.4062 238.945 18.4062C241.289 18.4062 243.375 18.8594 245.203 19.7656C247.047 20.6719 248.469 21.9219 249.469 23.5156C250.484 25.1094 250.992 26.8516 250.992 28.7422H246.469C246.469 26.6797 245.812 25.0625 244.5 23.8906C243.188 22.7031 241.336 22.1094 238.945 22.1094C236.727 22.1094 234.992 22.6016 233.742 23.5859C232.508 24.5547 231.891 25.9062 231.891 27.6406C231.891 29.0312 232.477 30.2109 233.648 31.1797C234.836 32.1328 236.844 33.0078 239.672 33.8047C242.516 34.6016 244.734 35.4844 246.328 36.4531C247.938 37.4062 249.125 38.5234 249.891 39.8047C250.672 41.0859 251.062 42.5938 251.062 44.3281C251.062 47.0938 249.984 49.3125 247.828 50.9844C245.672 52.6406 242.789 53.4688 239.18 53.4688C236.836 53.4688 234.648 53.0234 232.617 52.1328C230.586 51.2266 229.016 49.9922 227.906 48.4297C226.812 46.8672 226.266 45.0938 226.266 43.1094H230.789C230.789 45.1719 231.547 46.8047 233.062 48.0078C234.594 49.1953 236.633 49.7891 239.18 49.7891C241.555 49.7891 243.375 49.3047 244.641 48.3359C245.906 47.3672 246.539 46.0469 246.539 44.375C246.539 42.7031 245.953 41.4141 244.781 40.5078C243.609 39.5859 241.484 38.6797 238.406 37.7891Z" fill="white"/>
<rect x="145" width="15" height="17" fill="#F4DC5A"/>
</svg>
