<svg width="1440" height="1024" viewBox="0 0 1440 1024" fill="none" xmlns="http://www.w3.org/2000/svg">
<g clip-path="url(#clip0)">
<path d="M636.024 1173.69C669.812 1149.71 688.454 1113.66 685.343 1078.39C680.941 1028.63 637.619 993.298 581.514 972.332C560.974 964.648 539.404 958.403 520.178 948.901C473.766 925.955 475.927 890.052 454.721 855.049C397.626 760.748 238.317 829.512 140.183 807.412C76.3223 793.033 31.6076 746.314 29.3658 695.618C29.2042 691.983 29.184 688.15 26.821 684.982C25.1851 682.805 22.5798 681.167 19.9341 679.709C-21.3675 656.854 -83.4511 665.312 -120.289 689.841C-161.025 716.98 -179.666 758.696 -190.694 799.26C-199.499 831.636 -204.548 865.307 -195.803 897.701C-172.093 985.632 -56.5293 1040.81 -8.34081 1122.62C2.06032 1140.29 9.25021 1159.1 21.5902 1176.02C52.9753 1219.03 113.625 1244.4 174.133 1260.78C248.739 1280.97 332.513 1290.62 406.109 1268.36C453.247 1254.1 492.993 1227.72 540.455 1214.11C573.516 1204.59 610.112 1192.09 636.024 1173.69Z" fill="url(#paint0_linear)"/>
<path d="M843.683 29.9641C832.353 63.5455 845.339 112.694 874.725 138.879C904.09 165.064 950.622 178.975 995.034 174.872C1027.07 171.902 1056.59 160.403 1087.47 153.186C1118.35 145.969 1154.08 143.558 1180.9 157.469C1194.74 164.632 1205.9 175.952 1222.2 178.543C1236.85 180.883 1252.15 175.16 1262.11 166.503C1272.05 157.847 1277.48 146.653 1281.64 135.496C1293.35 104.164 1296.69 70.9601 1291.4 38.6024C1287.68 15.8909 1279.14 -7.27061 1259.38 -24.2773C1229.41 -50.1022 1181.18 -56.239 1136.95 -61.62C1097.21 -66.461 1057.34 -71.932 1017.11 -71.626C976.878 -71.3381 935.718 -64.8773 902.171 -47.6547C868.605 -30.4501 843.784 -1.25978 843.683 29.9641Z" fill="url(#paint1_linear)"/>
<g opacity="0.7">
<g opacity="0.7">
<path opacity="0.7" d="M703.177 -0.881836L1215.21 -413.919" stroke="#969696" stroke-width="2" stroke-miterlimit="10" stroke-linecap="round" stroke-linejoin="round" stroke-dasharray="0.3 0.3"/>
<path opacity="0.7" d="M707.276 32.8076L1251.51 -406.901" stroke="#969696" stroke-width="2" stroke-miterlimit="10" stroke-linecap="round" stroke-linejoin="round" stroke-dasharray="0.3 0.3"/>
<path opacity="0.7" d="M723.716 56.257L1283.36 -396.211" stroke="#969696" stroke-width="2" stroke-miterlimit="10" stroke-linecap="round" stroke-linejoin="round" stroke-dasharray="0.3 0.3"/>
<path opacity="0.7" d="M746.841 74.1816L1319 -388.67" stroke="#969696" stroke-width="2" stroke-miterlimit="10" stroke-linecap="round" stroke-linejoin="round" stroke-dasharray="0.3 0.3"/>
<path opacity="0.7" d="M764.876 96.3352L1354.95 -381.364" stroke="#969696" stroke-width="2" stroke-miterlimit="10" stroke-linecap="round" stroke-linejoin="round" stroke-dasharray="0.3 0.3"/>
<path opacity="0.7" d="M786.062 115.861L1393.12 -375.911" stroke="#969696" stroke-width="2" stroke-miterlimit="10" stroke-linecap="round" stroke-linejoin="round" stroke-dasharray="0.3 0.3"/>
<path opacity="0.7" d="M807.066 135.532L1422.33 -363.025" stroke="#969696" stroke-width="2" stroke-miterlimit="10" stroke-linecap="round" stroke-linejoin="round" stroke-dasharray="0.3 0.3"/>
<path opacity="0.7" d="M828.132 155.166L1458.08 -355.557" stroke="#969696" stroke-width="2" stroke-miterlimit="10" stroke-linecap="round" stroke-linejoin="round" stroke-dasharray="0.3 0.3"/>
<path opacity="0.7" d="M849.843 174.26L1487.14 -342.563" stroke="#969696" stroke-width="2" stroke-miterlimit="10" stroke-linecap="round" stroke-linejoin="round" stroke-dasharray="0.3 0.3"/>
<path opacity="0.7" d="M868.989 195.46L1511.35 -325.538" stroke="#969696" stroke-width="2" stroke-miterlimit="10" stroke-linecap="round" stroke-linejoin="round" stroke-dasharray="0.3 0.3"/>
<path opacity="0.7" d="M890.74 214.536L1538.68 -311.087" stroke="#969696" stroke-width="2" stroke-miterlimit="10" stroke-linecap="round" stroke-linejoin="round" stroke-dasharray="0.3 0.3"/>
<path opacity="0.7" d="M913.824 232.497L1565.56 -296.294" stroke="#969696" stroke-width="2" stroke-miterlimit="10" stroke-linecap="round" stroke-linejoin="round" stroke-dasharray="0.3 0.3"/>
<path opacity="0.7" d="M933.274 253.462L1561.99 -256.252" stroke="#969696" stroke-width="2" stroke-miterlimit="10" stroke-linecap="round" stroke-linejoin="round" stroke-dasharray="0.3 0.3"/>
</g>
<g opacity="0.7">
<path opacity="0.7" d="M1004.97 233.414L1517.03 -179.623" stroke="#969696" stroke-width="2" stroke-miterlimit="10" stroke-linecap="round" stroke-linejoin="round" stroke-dasharray="0.3 0.3"/>
<path opacity="0.7" d="M1009.07 267.086L1553.3 -172.604" stroke="#969696" stroke-width="2" stroke-miterlimit="10" stroke-linecap="round" stroke-linejoin="round" stroke-dasharray="0.3 0.3"/>
<path opacity="0.7" d="M1025.51 290.553L1585.17 -161.932" stroke="#969696" stroke-width="2" stroke-miterlimit="10" stroke-linecap="round" stroke-linejoin="round" stroke-dasharray="0.3 0.3"/>
<path opacity="0.7" d="M1048.64 308.478L1620.8 -154.374" stroke="#969696" stroke-width="2" stroke-miterlimit="10" stroke-linecap="round" stroke-linejoin="round" stroke-dasharray="0.3 0.3"/>
<path opacity="0.7" d="M1066.67 330.613L1656.75 -147.085" stroke="#969696" stroke-width="2" stroke-miterlimit="10" stroke-linecap="round" stroke-linejoin="round" stroke-dasharray="0.3 0.3"/>
<path opacity="0.7" d="M1087.86 350.158L1694.92 -141.614" stroke="#969696" stroke-width="2" stroke-miterlimit="10" stroke-linecap="round" stroke-linejoin="round" stroke-dasharray="0.3 0.3"/>
<path opacity="0.7" d="M1108.86 369.81L1724.12 -128.729" stroke="#969696" stroke-width="2" stroke-miterlimit="10" stroke-linecap="round" stroke-linejoin="round" stroke-dasharray="0.3 0.3"/>
<path opacity="0.7" d="M1129.93 389.462L1759.87 -121.26" stroke="#969696" stroke-width="2" stroke-miterlimit="10" stroke-linecap="round" stroke-linejoin="round" stroke-dasharray="0.3 0.3"/>
<path opacity="0.7" d="M1151.64 408.556L1788.93 -108.267" stroke="#969696" stroke-width="2" stroke-miterlimit="10" stroke-linecap="round" stroke-linejoin="round" stroke-dasharray="0.3 0.3"/>
<path opacity="0.7" d="M1170.78 429.756L1813.15 -91.2602" stroke="#969696" stroke-width="2" stroke-miterlimit="10" stroke-linecap="round" stroke-linejoin="round" stroke-dasharray="0.3 0.3"/>
<path opacity="0.7" d="M1192.53 448.832L1840.47 -76.809" stroke="#969696" stroke-width="2" stroke-miterlimit="10" stroke-linecap="round" stroke-linejoin="round" stroke-dasharray="0.3 0.3"/>
<path opacity="0.7" d="M1215.62 466.775L1867.38 -61.9979" stroke="#969696" stroke-width="2" stroke-miterlimit="10" stroke-linecap="round" stroke-linejoin="round" stroke-dasharray="0.3 0.3"/>
<path opacity="0.7" d="M1235.07 487.759L1863.78 -21.9557" stroke="#969696" stroke-width="2" stroke-miterlimit="10" stroke-linecap="round" stroke-linejoin="round" stroke-dasharray="0.3 0.3"/>
</g>
</g>
<g opacity="0.7">
<g opacity="0.7">
<path opacity="0.7" d="M-262.553 966.069L183.544 553.032" stroke="#969696" stroke-width="2" stroke-miterlimit="10" stroke-linecap="round" stroke-linejoin="round" stroke-dasharray="0.3 0.3"/>
<path opacity="0.7" d="M-258.978 999.759L215.152 560.051" stroke="#969696" stroke-width="2" stroke-miterlimit="10" stroke-linecap="round" stroke-linejoin="round" stroke-dasharray="0.3 0.3"/>
<path opacity="0.7" d="M-244.659 1023.21L242.921 570.741" stroke="#969696" stroke-width="2" stroke-miterlimit="10" stroke-linecap="round" stroke-linejoin="round" stroke-dasharray="0.3 0.3"/>
<path opacity="0.7" d="M-224.503 1041.13L273.963 578.299" stroke="#969696" stroke-width="2" stroke-miterlimit="10" stroke-linecap="round" stroke-linejoin="round" stroke-dasharray="0.3 0.3"/>
<path opacity="0.7" d="M-208.81 1063.29L305.288 585.588" stroke="#969696" stroke-width="2" stroke-miterlimit="10" stroke-linecap="round" stroke-linejoin="round" stroke-dasharray="0.3 0.3"/>
<path opacity="0.7" d="M-190.351 1082.81L338.531 591.059" stroke="#969696" stroke-width="2" stroke-miterlimit="10" stroke-linecap="round" stroke-linejoin="round" stroke-dasharray="0.3 0.3"/>
<path opacity="0.7" d="M-172.033 1102.48L363.978 603.926" stroke="#969696" stroke-width="2" stroke-miterlimit="10" stroke-linecap="round" stroke-linejoin="round" stroke-dasharray="0.3 0.3"/>
<path opacity="0.7" d="M-153.694 1122.12L395.121 611.395" stroke="#969696" stroke-width="2" stroke-miterlimit="10" stroke-linecap="round" stroke-linejoin="round" stroke-dasharray="0.3 0.3"/>
<path opacity="0.7" d="M-134.77 1141.21L420.448 624.388" stroke="#969696" stroke-width="2" stroke-miterlimit="10" stroke-linecap="round" stroke-linejoin="round" stroke-dasharray="0.3 0.3"/>
<path opacity="0.7" d="M-118.089 1162.43L441.552 641.413" stroke="#969696" stroke-width="2" stroke-miterlimit="10" stroke-linecap="round" stroke-linejoin="round" stroke-dasharray="0.3 0.3"/>
<path opacity="0.7" d="M-99.1436 1181.49L465.345 655.864" stroke="#969696" stroke-width="2" stroke-miterlimit="10" stroke-linecap="round" stroke-linejoin="round" stroke-dasharray="0.3 0.3"/>
<path opacity="0.7" d="M-79.0281 1199.45L488.772 670.657" stroke="#969696" stroke-width="2" stroke-miterlimit="10" stroke-linecap="round" stroke-linejoin="round" stroke-dasharray="0.3 0.3"/>
<path opacity="0.7" d="M-62.1038 1220.41L485.662 710.699" stroke="#969696" stroke-width="2" stroke-miterlimit="10" stroke-linecap="round" stroke-linejoin="round" stroke-dasharray="0.3 0.3"/>
</g>
<g opacity="0.7">
<path opacity="0.7" d="M0.383606 1200.37L446.481 787.328" stroke="#969696" stroke-width="2" stroke-miterlimit="10" stroke-linecap="round" stroke-linejoin="round" stroke-dasharray="0.3 0.3"/>
<path opacity="0.7" d="M3.95844 1234.04L478.088 794.347" stroke="#969696" stroke-width="2" stroke-miterlimit="10" stroke-linecap="round" stroke-linejoin="round" stroke-dasharray="0.3 0.3"/>
<path opacity="0.7" d="M18.2773 1257.5L505.837 805.037" stroke="#969696" stroke-width="2" stroke-miterlimit="10" stroke-linecap="round" stroke-linejoin="round" stroke-dasharray="0.3 0.3"/>
<path opacity="0.7" d="M38.4135 1275.43L536.9 812.577" stroke="#969696" stroke-width="2" stroke-miterlimit="10" stroke-linecap="round" stroke-linejoin="round" stroke-dasharray="0.3 0.3"/>
<path opacity="0.7" d="M54.1259 1297.56L568.204 819.866" stroke="#969696" stroke-width="2" stroke-miterlimit="10" stroke-linecap="round" stroke-linejoin="round" stroke-dasharray="0.3 0.3"/>
<path opacity="0.7" d="M72.5856 1317.11L601.468 825.337" stroke="#969696" stroke-width="2" stroke-miterlimit="10" stroke-linecap="round" stroke-linejoin="round" stroke-dasharray="0.3 0.3"/>
<path opacity="0.7" d="M90.8836 1336.78L626.915 838.222" stroke="#969696" stroke-width="2" stroke-miterlimit="10" stroke-linecap="round" stroke-linejoin="round" stroke-dasharray="0.3 0.3"/>
<path opacity="0.7" d="M109.242 1356.41L658.037 845.691" stroke="#969696" stroke-width="2" stroke-miterlimit="10" stroke-linecap="round" stroke-linejoin="round" stroke-dasharray="0.3 0.3"/>
<path opacity="0.7" d="M128.145 1375.51L683.363 858.684" stroke="#969696" stroke-width="2" stroke-miterlimit="10" stroke-linecap="round" stroke-linejoin="round" stroke-dasharray="0.3 0.3"/>
<path opacity="0.7" d="M144.848 1396.71L704.468 875.691" stroke="#969696" stroke-width="2" stroke-miterlimit="10" stroke-linecap="round" stroke-linejoin="round" stroke-dasharray="0.3 0.3"/>
<path opacity="0.7" d="M163.772 1415.78L728.26 890.16" stroke="#969696" stroke-width="2" stroke-miterlimit="10" stroke-linecap="round" stroke-linejoin="round" stroke-dasharray="0.3 0.3"/>
<path opacity="0.7" d="M183.887 1433.73L751.688 904.953" stroke="#969696" stroke-width="2" stroke-miterlimit="10" stroke-linecap="round" stroke-linejoin="round" stroke-dasharray="0.3 0.3"/>
<path opacity="0.7" d="M200.832 1454.71L748.578 944.995" stroke="#969696" stroke-width="2" stroke-miterlimit="10" stroke-linecap="round" stroke-linejoin="round" stroke-dasharray="0.3 0.3"/>
</g>
</g>
<g opacity="0.4248">
<g opacity="0.4248">
<path opacity="0.4248" d="M38.8985 -26.4908C15.4506 -5.38092 13.956 25.627 14.461 53.5755C14.8851 77.3669 12.4413 103.57 -4.11969 123.276C-16.0759 137.511 -34.0911 145.79 -51.5206 153.618C-63.598 159.035 -75.4532 164.722 -88.0154 169.203C-103.607 174.764 -119.703 179.569 -134.103 187.397C-148.503 195.208 -159.854 206.132 -167.448 219.557C-174.981 232.893 -178.98 247.632 -181.868 262.263C-182.595 265.916 -183.201 269.605 -183.786 273.277C-183.928 274.194 -182.393 274.608 -182.191 273.673C-179.182 258.969 -176.253 244.122 -170.255 230.103C-164.135 215.85 -154.603 202.964 -140.768 193.75C-127.196 184.716 -111.201 179.335 -95.5486 173.918C-87.7932 171.237 -80.0378 168.537 -72.5046 165.334C-66.9304 162.958 -61.4976 160.295 -55.9839 157.793C-38.4939 149.911 -20.0344 142.28 -6.68463 129.089C10.2197 112.37 15.3092 89.5325 16.3594 67.6848C17.0663 52.9097 15.7737 38.1526 17.4096 23.4134C18.9849 9.21422 22.9838 -5.14696 32.052 -17.0966C34.3745 -20.156 37.0203 -22.9815 39.9083 -25.591C40.5748 -26.1849 39.565 -27.0847 38.8985 -26.4908Z" fill="url(#paint2_linear)"/>
</g>
</g>
<g opacity="0.4248">
<g opacity="0.4248">
<path opacity="0.4248" d="M-147.494 373.625C-148.079 343.985 -140.425 314.453 -125.439 287.98C-110.09 260.877 -87.4904 237.968 -59.579 220.619C-30.0317 202.262 3.5952 188.477 28.2751 164.506C38.959 154.122 47.8656 141.992 52.4098 128.405C57.9436 111.812 55.3988 94.6615 51.8241 77.9788C48.0676 60.5042 43.2003 42.3997 47.1587 24.6192C50.1478 11.1578 59.3573 -2.05159 73.8179 -7.79247C77.3321 -9.1782 81.1492 -10.096 84.9663 -10.474C85.9156 -10.5639 85.9761 -11.8777 84.9663 -11.8417C70.021 -11.3198 57.681 -1.5477 50.8951 9.77209C42.1702 24.3492 42.8367 41.5359 45.543 57.4088C48.6533 75.5313 54.793 93.4738 53.6418 111.974C52.6723 127.415 45.6642 141.794 35.4044 154.122C13.2289 180.793 -20.701 195.784 -51.2177 213.474C-66.062 222.077 -80.1187 231.633 -92.3981 243.043C-103.809 253.642 -113.746 265.52 -121.966 278.262C-138.527 303.907 -148.281 333.151 -149.352 362.755C-149.493 366.39 -149.453 370.026 -149.291 373.643C-149.251 374.651 -147.474 374.651 -147.494 373.625Z" fill="url(#paint3_linear)"/>
</g>
</g>
<path d="M1107.33 1053.39C1097.19 1014.55 1107.33 972.314 1133.9 940.28C1163.53 904.575 1211.16 889.548 1253.02 868.474C1272.9 858.45 1292.24 846.681 1307.13 831.042C1314.54 823.249 1320.62 814.593 1325.12 805.199C1329.87 795.247 1332.92 784.755 1335.38 774.209C1340.35 752.811 1343.24 730.927 1352.73 710.591C1361.48 691.857 1374.67 674.778 1391.06 660.705C1426.17 630.561 1475.59 615.948 1524 620.735C1530.16 621.347 1536.32 622.283 1542.4 623.38C1543.55 623.596 1544.05 622.049 1542.88 621.797C1495.54 611.071 1442.42 621.941 1403.89 648.287C1386.12 660.453 1371.11 675.768 1359.98 693.099C1354.35 701.845 1349.72 711.113 1346.21 720.705C1342.35 731.287 1339.91 742.211 1337.65 753.135C1333.06 775.253 1329.06 798.144 1315.57 817.598C1303.03 835.685 1284.08 849.398 1264.07 860.556C1222.91 883.501 1173.79 896.891 1140.79 930.13C1111.41 959.735 1097.33 1000.86 1103.17 1040.03C1103.85 1044.64 1104.86 1049.19 1106.11 1053.69C1106.28 1054.4 1107.51 1054.09 1107.33 1053.39Z" fill="url(#paint4_linear)"/>
<path d="M1188.82 1007.21C1182.48 994.27 1183.89 979.603 1190.01 966.825C1196.35 953.544 1207.5 942.908 1220.53 934.522C1247.77 916.993 1281.06 909.182 1308.89 892.536C1322.4 884.455 1333.79 874.269 1342.41 861.96C1350.85 849.902 1356.71 836.531 1361.23 822.925C1371.27 792.727 1374.54 760.765 1388.46 731.593C1400.09 707.208 1421.36 683.776 1451.17 676.65C1454.62 675.822 1458.14 675.156 1461.69 674.724C1462.46 674.634 1462.28 673.482 1461.51 673.518C1431.4 675.372 1406.88 696.662 1393.04 719.139C1375.72 747.304 1371.62 779.878 1362.99 810.58C1358.97 824.869 1353.96 839.032 1346.41 852.188C1338.78 865.487 1328.48 877.257 1315.19 886.435C1287.94 905.259 1253.65 913.07 1224.99 929.788C1211.64 937.581 1199.48 947.353 1191.73 959.933C1184.54 971.576 1180.78 985.524 1184.07 998.679C1184.86 1001.85 1186.09 1004.89 1187.69 1007.82C1188.03 1008.54 1189.16 1007.91 1188.82 1007.21Z" fill="url(#paint5_linear)"/>
<path d="M1440.12 746.728C1422.61 751.173 1408.47 762.961 1398.25 775.99C1387.19 790.136 1380.14 806.351 1375.01 822.889C1369.01 842.182 1365.11 861.996 1357.96 881C1354.53 890.124 1350.39 899.122 1344.79 907.365C1339.83 914.671 1333.77 921.384 1326.78 927.233C1313.21 938.571 1295.52 946.633 1276.55 946.057C1274.21 945.985 1271.87 945.787 1269.54 945.481C1268.45 945.337 1267.95 946.777 1269.08 946.993C1287.54 950.502 1306.3 944.42 1320.94 934.504C1328.62 929.303 1335.36 923.094 1341.12 916.201C1347.22 908.894 1351.92 900.868 1355.8 892.464C1364.45 873.747 1368.79 853.771 1374.16 834.191C1378.93 816.753 1384.76 799.548 1395.02 783.981C1404.39 769.764 1417.18 757.472 1434.02 750.274C1436.12 749.374 1438.26 748.564 1440.42 747.826C1441.21 747.556 1440.93 746.512 1440.12 746.728Z" fill="url(#paint6_linear)"/>
<path d="M546.088 786.464C546.088 787.994 544.695 789.236 542.978 789.236C541.261 789.236 539.868 787.994 539.868 786.464C539.868 784.935 541.261 783.693 542.978 783.693C544.695 783.711 546.088 784.935 546.088 786.464Z" fill="white"/>
<path d="M796.847 170.913C798.564 170.913 799.957 169.672 799.957 168.141C799.957 166.611 798.564 165.37 796.847 165.37C795.129 165.37 793.736 166.611 793.736 168.141C793.736 169.672 795.129 170.913 796.847 170.913Z" fill="white"/>
<g opacity="0.7">
<path opacity="0.7" d="M311.144 570.327L757.241 157.289" stroke="#969696" stroke-width="2" stroke-miterlimit="10" stroke-linecap="round" stroke-linejoin="round" stroke-dasharray="0.3 0.3"/>
<path opacity="0.7" d="M314.719 604.016L788.849 164.308" stroke="#969696" stroke-width="2" stroke-miterlimit="10" stroke-linecap="round" stroke-linejoin="round" stroke-dasharray="0.3 0.3"/>
<path opacity="0.7" d="M329.038 627.465L816.598 174.998" stroke="#969696" stroke-width="2" stroke-miterlimit="10" stroke-linecap="round" stroke-linejoin="round" stroke-dasharray="0.3 0.3"/>
<path opacity="0.7" d="M349.194 645.39L847.66 182.556" stroke="#969696" stroke-width="2" stroke-miterlimit="10" stroke-linecap="round" stroke-linejoin="round" stroke-dasharray="0.3 0.3"/>
<path opacity="0.7" d="M364.886 667.544L878.984 189.845" stroke="#969696" stroke-width="2" stroke-miterlimit="10" stroke-linecap="round" stroke-linejoin="round" stroke-dasharray="0.3 0.3"/>
<path opacity="0.7" d="M383.346 687.07L912.228 195.316" stroke="#969696" stroke-width="2" stroke-miterlimit="10" stroke-linecap="round" stroke-linejoin="round" stroke-dasharray="0.3 0.3"/>
<path opacity="0.7" d="M401.664 706.74L937.675 208.183" stroke="#969696" stroke-width="2" stroke-miterlimit="10" stroke-linecap="round" stroke-linejoin="round" stroke-dasharray="0.3 0.3"/>
<path opacity="0.7" d="M420.002 726.374L968.818 215.652" stroke="#969696" stroke-width="2" stroke-miterlimit="10" stroke-linecap="round" stroke-linejoin="round" stroke-dasharray="0.3 0.3"/>
<path opacity="0.7" d="M438.906 745.468L994.144 228.645" stroke="#969696" stroke-width="2" stroke-miterlimit="10" stroke-linecap="round" stroke-linejoin="round" stroke-dasharray="0.3 0.3"/>
<path opacity="0.7" d="M455.608 766.686L1015.23 245.67" stroke="#969696" stroke-width="2" stroke-miterlimit="10" stroke-linecap="round" stroke-linejoin="round" stroke-dasharray="0.3 0.3"/>
<path opacity="0.7" d="M474.553 785.745L1039.02 260.121" stroke="#969696" stroke-width="2" stroke-miterlimit="10" stroke-linecap="round" stroke-linejoin="round" stroke-dasharray="0.3 0.3"/>
<path opacity="0.7" d="M494.648 803.705L1062.47 274.914" stroke="#969696" stroke-width="2" stroke-miterlimit="10" stroke-linecap="round" stroke-linejoin="round" stroke-dasharray="0.3 0.3"/>
<path opacity="0.7" d="M511.593 824.671L1059.34 314.957" stroke="#969696" stroke-width="2" stroke-miterlimit="10" stroke-linecap="round" stroke-linejoin="round" stroke-dasharray="0.3 0.3"/>
</g>
<g opacity="0.7">
<g opacity="0.7">
<path opacity="0.7" d="M574.061 804.623L1020.18 391.586" stroke="#969696" stroke-width="2" stroke-miterlimit="10" stroke-linecap="round" stroke-linejoin="round" stroke-dasharray="0.3 0.3"/>
<path opacity="0.7" d="M577.635 838.312L1051.79 398.604" stroke="#969696" stroke-width="2" stroke-miterlimit="10" stroke-linecap="round" stroke-linejoin="round" stroke-dasharray="0.3 0.3"/>
<path opacity="0.7" d="M591.975 861.762L1079.54 409.294" stroke="#969696" stroke-width="2" stroke-miterlimit="10" stroke-linecap="round" stroke-linejoin="round" stroke-dasharray="0.3 0.3"/>
<path opacity="0.7" d="M612.11 879.686L1110.58 416.835" stroke="#969696" stroke-width="2" stroke-miterlimit="10" stroke-linecap="round" stroke-linejoin="round" stroke-dasharray="0.3 0.3"/>
<path opacity="0.7" d="M627.824 901.822L1141.9 424.123" stroke="#969696" stroke-width="2" stroke-miterlimit="10" stroke-linecap="round" stroke-linejoin="round" stroke-dasharray="0.3 0.3"/>
<path opacity="0.7" d="M646.283 921.366L1175.14 429.594" stroke="#969696" stroke-width="2" stroke-miterlimit="10" stroke-linecap="round" stroke-linejoin="round" stroke-dasharray="0.3 0.3"/>
<path opacity="0.7" d="M664.58 941.036L1200.59 442.48" stroke="#969696" stroke-width="2" stroke-miterlimit="10" stroke-linecap="round" stroke-linejoin="round" stroke-dasharray="0.3 0.3"/>
<path opacity="0.7" d="M682.919 960.67L1231.73 449.948" stroke="#969696" stroke-width="2" stroke-miterlimit="10" stroke-linecap="round" stroke-linejoin="round" stroke-dasharray="0.3 0.3"/>
<path opacity="0.7" d="M701.843 979.765L1257.06 462.942" stroke="#969696" stroke-width="2" stroke-miterlimit="10" stroke-linecap="round" stroke-linejoin="round" stroke-dasharray="0.3 0.3"/>
<path opacity="0.7" d="M718.525 1000.96L1278.17 479.948" stroke="#969696" stroke-width="2" stroke-miterlimit="10" stroke-linecap="round" stroke-linejoin="round" stroke-dasharray="0.3 0.3"/>
<path opacity="0.7" d="M737.47 1020.04L1301.96 494.417" stroke="#969696" stroke-width="2" stroke-miterlimit="10" stroke-linecap="round" stroke-linejoin="round" stroke-dasharray="0.3 0.3"/>
<path opacity="0.7" d="M757.585 1037.98L1325.39 509.211" stroke="#969696" stroke-width="2" stroke-miterlimit="10" stroke-linecap="round" stroke-linejoin="round" stroke-dasharray="0.3 0.3"/>
<path opacity="0.7" d="M774.53 1058.97L1322.28 549.253" stroke="#969696" stroke-width="2" stroke-miterlimit="10" stroke-linecap="round" stroke-linejoin="round" stroke-dasharray="0.3 0.3"/>
</g>
</g>
<path d="M958.741 330.164C964.329 330.164 968.859 326.127 968.859 321.147C968.859 316.168 964.329 312.131 958.741 312.131C953.152 312.131 948.622 316.168 948.622 321.147C948.622 326.127 953.152 330.164 958.741 330.164Z" fill="url(#paint7_linear)"/>
<path d="M958.74 336.588C968.31 336.588 976.068 329.675 976.068 321.147C976.068 312.619 968.31 305.706 958.74 305.706C949.17 305.706 941.411 312.619 941.411 321.147C941.411 329.675 949.17 336.588 958.74 336.588Z" stroke="url(#paint8_linear)" stroke-miterlimit="10"/>
<path d="M738.883 765.48C738.883 771.509 733.389 776.404 726.623 776.404C719.858 776.404 714.364 771.509 714.364 765.48C714.364 759.452 719.858 754.557 726.623 754.557C733.389 754.557 738.883 759.434 738.883 765.48Z" stroke="url(#paint9_linear)" stroke-miterlimit="10"/>
<path d="M1007.62 369.828C1020.96 369.828 1031.77 360.191 1031.77 348.304C1031.77 336.417 1020.96 326.78 1007.62 326.78C994.275 326.78 983.461 336.417 983.461 348.304C983.461 360.191 994.275 369.828 1007.62 369.828Z" fill="url(#paint10_linear)"/>
<path d="M325.867 581.574C325.867 587.081 320.859 591.544 314.678 591.544C308.498 591.544 303.49 587.081 303.49 581.574C303.49 576.067 308.498 571.604 314.678 571.604C320.859 571.604 325.867 576.067 325.867 581.574Z" fill="url(#paint11_linear)"/>
<path d="M886.174 296.33L904.189 277.2" stroke="url(#paint12_linear)" stroke-miterlimit="10"/>
<path d="M891.708 300.451L920.003 270.415" stroke="url(#paint13_linear)" stroke-miterlimit="10"/>
<path d="M886.174 316.342L915.237 285.46" stroke="url(#paint14_linear)" stroke-miterlimit="10"/>
<path d="M336.592 519.055L354.587 499.924" stroke="url(#paint15_linear)" stroke-miterlimit="10"/>
<path d="M342.105 523.194L370.4 493.14" stroke="url(#paint16_linear)" stroke-miterlimit="10"/>
<path d="M336.592 539.067L365.634 508.185" stroke="url(#paint17_linear)" stroke-miterlimit="10"/>
<path d="M937.15 626.116L960.134 601.677" stroke="url(#paint18_linear)" stroke-miterlimit="10"/>
<path d="M944.199 631.389L980.33 593.002" stroke="url(#paint19_linear)" stroke-miterlimit="10"/>
<path d="M937.15 651.671L974.271 612.24" stroke="url(#paint20_linear)" stroke-miterlimit="10"/>
<g opacity="0.5">
<path opacity="0.5" d="M899.868 199.491L872.886 226.288" stroke="url(#paint21_linear)" stroke-miterlimit="10"/>
<path opacity="0.5" d="M907.603 205.682L865.231 247.776" stroke="url(#paint22_linear)" stroke-miterlimit="10"/>
<path opacity="0.5" d="M931.92 195.424L888.376 238.669" stroke="url(#paint23_linear)" stroke-miterlimit="10"/>
</g>
<path d="M325.867 614.49L360.1 578.119" stroke="url(#paint24_linear)" stroke-miterlimit="10"/>
<path d="M336.369 622.336L390.152 565.216" stroke="url(#paint25_linear)" stroke-miterlimit="10"/>
<path d="M325.867 652.535L381.104 593.83" stroke="url(#paint26_linear)" stroke-miterlimit="10"/>
<path d="M390.152 535.611C393.867 535.611 396.878 532.928 396.878 529.619C396.878 526.309 393.867 523.626 390.152 523.626C386.438 523.626 383.427 526.309 383.427 529.619C383.427 532.928 386.438 535.611 390.152 535.611Z" fill="white"/>
<path d="M394.575 655.45C394.575 658.761 391.566 661.443 387.85 661.443C384.134 661.443 381.124 658.761 381.124 655.45C381.124 652.139 384.134 649.457 387.85 649.457C391.566 649.457 394.575 652.139 394.575 655.45Z" fill="white"/>
<path d="M359.353 364.807C359.353 366.337 357.959 367.578 356.243 367.578C354.526 367.578 353.132 366.337 353.132 364.807C353.132 363.277 354.526 362.035 356.243 362.035C357.959 362.053 359.353 363.277 359.353 364.807Z" fill="white"/>
<path d="M955.711 444.909C957.428 444.909 958.821 443.668 958.821 442.138C958.821 440.607 957.428 439.366 955.711 439.366C953.993 439.366 952.6 440.607 952.6 442.138C952.6 443.668 953.993 444.909 955.711 444.909Z" fill="white"/>
<path d="M986.55 691.587C986.55 693.117 985.157 694.358 983.44 694.358C981.723 694.358 980.33 693.117 980.33 691.587C980.33 690.057 981.723 688.815 983.44 688.815C985.157 688.833 986.55 690.057 986.55 691.587Z" fill="white"/>
<path d="M325.867 327.14C329.582 327.14 332.593 324.457 332.593 321.147C332.593 317.838 329.582 315.154 325.867 315.154C322.153 315.154 319.142 317.838 319.142 321.147C319.142 324.457 322.153 327.14 325.867 327.14Z" fill="white"/>
<path d="M508.987 719.643C508.987 722.955 505.978 725.636 502.262 725.636C498.546 725.636 495.536 722.955 495.536 719.643C495.536 716.332 498.546 713.651 502.262 713.651C505.978 713.651 508.987 716.332 508.987 719.643Z" fill="white"/>
<path d="M943.875 716.026C943.875 719.338 940.866 722.019 937.15 722.019C933.434 722.019 930.425 719.338 930.425 716.026C930.425 712.715 933.434 710.033 937.15 710.033C940.866 710.033 943.875 712.715 943.875 716.026Z" fill="white"/>
<path d="M1059.02 539.067C1059.02 542.378 1056.01 545.059 1052.29 545.059C1048.57 545.059 1045.56 542.378 1045.56 539.067C1045.56 535.755 1048.57 533.074 1052.29 533.074C1056.01 533.056 1059.02 535.755 1059.02 539.067Z" fill="white"/>
<path d="M250.636 456.895C254.35 456.895 257.361 454.212 257.361 450.902C257.361 447.592 254.35 444.909 250.636 444.909C246.921 444.909 243.91 447.592 243.91 450.902C243.91 454.212 246.921 456.895 250.636 456.895Z" fill="white"/>
<path d="M440.845 725.762L459.425 732.493L467.786 706.758L440.845 725.762Z" fill="#FF7E3D"/>
<path d="M390.153 704.274L405.259 738.648L463.243 693.405L390.153 704.274Z" fill="url(#paint27_linear)"/>
<path d="M1044.66 421.28L1036.56 457.489L970.555 422.018L1044.66 421.28Z" fill="#FF7E3D"/>
<path d="M378.155 283.589L353.576 298.94L383.144 312.563L378.155 283.589Z" fill="#FF7E3D"/>
<path d="M980.491 482.072L952.56 472.3L956.155 501.778L980.491 482.072Z" fill="url(#paint28_linear)"/>
<path d="M724.544 219.755C697.38 206.294 663.732 197.439 632.872 205.322C608.919 211.441 590.844 227.386 577.191 245.346C561.822 265.556 550.996 288.214 539.525 310.295C532.497 323.811 524.842 336.804 514.582 348.646C503.555 361.387 490.428 372.689 475.785 382.083C460.638 391.783 443.956 399.36 426.264 404.597C406.088 410.572 385.124 413.883 364.423 418.058C330.392 424.951 294.301 435.659 272.024 461.178C262.168 472.462 256.311 486.139 256.049 500.482C255.766 515.203 261.058 529.709 269.399 542.306C288.323 570.939 321.222 587.315 355.556 597.807C392.314 609.037 431.111 614.382 467.101 627.699C485.076 634.358 502.283 643.086 516.541 655.018C530.679 666.86 541.605 681.275 551.32 696.14C569.638 724.215 584.381 754.827 610.778 777.916C622.956 788.57 637.518 797.19 653.957 801.581C670.478 805.973 688.13 805.973 704.913 802.787C783.78 787.796 818.881 716.98 850.67 658.833C868.443 626.332 888.154 594.694 918.106 569.769C947.027 545.707 981.542 527.351 1008.5 501.364C1032.46 478.293 1050.47 448.742 1046.25 416.403C1042.23 385.665 1020.76 358.472 994.427 339.234C964.093 317.08 926.568 304.123 890.134 292.209C870.583 285.82 850.791 279.863 831.806 272.197C813.064 264.62 795.049 255.748 777.256 246.57C768.753 242.179 760.311 237.716 751.829 233.288C742.821 228.591 733.47 224.524 724.362 220.007C723.655 219.647 723.009 220.619 723.716 220.979C732.804 225.478 741.448 230.715 750.415 235.412C758.898 239.839 767.34 244.302 775.842 248.693C793.232 257.674 810.843 266.348 829.12 273.799C865.373 288.592 904.109 297.86 940.261 312.905C973.969 326.924 1005.68 345.749 1025.91 374.219C1035.2 387.284 1041.83 402.042 1043.65 417.482C1045.54 433.589 1041.91 449.696 1034.19 464.291C1018.04 494.867 987.924 516.679 958.619 536.961C943.068 547.723 927.355 558.395 913.157 570.579C899.424 582.348 887.609 595.648 877.349 609.937C856.426 639.073 841.783 671.251 823.829 701.827C806.298 731.665 784.85 761.539 753.303 781.083C724.16 799.134 685.767 808.816 651.211 798.234C617.2 787.814 594.721 760.226 577.595 733.519C559.418 705.156 544.311 674.04 516.582 651.761C489.196 629.769 453.185 619.367 418.246 611.053C381.327 602.27 342.772 595.072 310.216 576.319C281.496 559.781 257.624 531.166 258.755 499.51C259.886 467.441 288.969 444.891 319.748 432.797C356.687 418.274 398.13 416.997 435.695 404.111C467.161 393.313 495.053 374.705 515.794 351.057C534.213 330.074 544.594 305.076 557.54 281.321C568.709 260.823 581.372 239.803 600.538 224.29C620.33 208.255 645.737 202.209 672.074 205.484C690.23 207.733 707.498 213.492 723.554 221.285C724.645 221.771 725.614 220.295 724.544 219.755Z" fill="url(#paint29_linear)"/>
<g opacity="0.4248">
<path opacity="0.4248" d="M735.046 167.637C703.984 152.25 665.49 142.136 630.207 151.171C602.841 158.171 582.18 176.402 566.588 196.918C548.997 220.061 536.617 245.994 523.469 271.261C515.41 286.756 506.645 301.621 494.911 315.19C482.288 329.786 467.242 342.761 450.439 353.505C433.09 364.627 413.964 373.301 393.707 379.294C370.623 386.133 346.609 389.912 322.919 394.717C284.001 402.599 242.699 414.837 217.211 444.027C205.962 456.913 199.297 472.534 198.974 488.911C198.651 505.737 204.71 522.294 214.222 536.691C235.853 569.427 273.478 588.161 312.74 600.147C354.829 612.996 399.241 619.115 440.442 634.358C461.062 641.989 480.794 651.995 497.133 665.672C513.33 679.223 525.852 695.744 536.98 712.787C557.924 744.911 574.808 779.95 605.022 806.369C618.937 818.552 635.559 828.396 654.361 833.417C673.245 838.438 693.401 838.438 712.587 834.803C802.805 817.652 842.955 736.614 879.329 670.081C899.687 632.865 922.246 596.619 956.58 568.077C989.702 540.542 1029.21 519.523 1060.07 489.774C1087.45 463.392 1108.05 429.612 1103.21 392.629C1098.6 357.5 1074.04 326.402 1043.93 304.411C1009.23 279.072 966.294 264.242 924.629 250.619C902.231 243.295 879.551 236.474 857.799 227.692C836.351 219.017 815.71 208.867 795.352 198.339C785.617 193.318 775.943 188.207 766.249 183.132C755.949 177.751 745.285 173.018 734.864 167.853C734.157 167.493 733.511 168.465 734.218 168.825C744.619 173.972 754.576 179.893 764.856 185.256C774.55 190.331 784.244 195.424 793.959 200.463C813.852 210.739 834.008 220.673 854.931 229.203C896.435 246.138 940.786 256.738 982.168 273.961C1020.78 290.031 1057.1 311.591 1080.3 344.201C1090.95 359.174 1098.54 376.109 1100.62 393.817C1102.8 412.299 1098.62 430.746 1089.75 447.501C1071.23 482.522 1036.76 507.501 1003.21 530.734C985.4 543.062 967.425 555.264 951.167 569.211C935.454 582.672 921.943 597.897 910.209 614.238C886.256 647.604 869.493 684.442 848.933 719.446C828.838 753.639 804.279 787.85 768.127 810.238C734.723 830.916 690.695 842.02 651.09 829.872C612.111 817.922 586.32 786.32 566.689 755.69C545.887 723.243 528.599 687.628 496.87 662.127C465.546 636.968 424.345 625.072 384.377 615.57C342.106 605.51 297.936 597.249 260.674 575.798C227.754 556.847 200.388 524.022 201.66 487.723C202.953 450.956 236.297 425.077 271.58 411.202C313.871 394.573 361.353 393.115 404.371 378.34C440.341 365.995 472.251 344.687 495.982 317.656C517.067 293.631 528.942 265.034 543.746 237.86C556.55 214.374 571.051 190.313 593.005 172.532C615.726 154.14 644.849 147.211 675.083 150.991C695.885 153.582 715.657 160.169 734.036 169.113C735.167 169.635 736.136 168.159 735.046 167.637Z" fill="url(#paint30_linear)"/>
</g>
<path d="M881.227 574.592C905.018 551.682 935.111 535.234 961.083 514.502C983.723 496.433 1004.53 473.47 1009.62 446.025C1014.5 419.534 1002.95 393.475 984.309 373.121C963.547 350.446 934.646 335.724 904.877 324.279C872.34 311.771 837.986 303.259 806.076 289.437C774.287 275.652 745.083 257.8 713.759 243.313C690.028 232.335 660.885 225.622 634.488 232.407C614.17 237.626 598.417 250.655 586.34 265.664C572.546 282.797 562.831 302.269 552.996 321.327C547.361 332.269 541.847 343.247 534.435 353.361C526.134 364.663 516.097 374.939 504.726 383.865C493.073 393.025 479.986 400.728 465.969 406.685C449.833 413.541 432.484 417.554 415.095 420.992C383.467 427.237 350.507 432.276 323.949 450.02C312.78 457.489 303.126 466.991 297.491 478.491C291.857 489.972 290.726 502.696 293.573 514.933C299.693 541.172 321.303 562.3 346.811 575.33C404.451 604.79 480.996 599.733 530.517 642.745C554.551 663.62 567.577 691.731 584.34 717.088C599.225 739.62 618.391 762.025 646.404 772.157C674.982 782.505 707.538 777.106 733.854 764.113C762.311 750.076 783.153 726.896 799.512 702.349C803.632 696.158 807.51 689.859 811.226 683.471C815.063 676.902 818.012 670.027 821.627 663.368C821.971 662.721 820.9 662.145 820.537 662.793C816.962 669.397 812.64 675.714 808.843 682.211C805.026 688.744 801.067 695.222 796.826 701.557C788.485 714.029 779.134 725.996 768.067 736.668C746.719 757.256 717.939 772.733 686.049 774.929C670.72 775.99 655.25 773.669 641.456 767.514C627.985 761.503 616.634 752.415 607.021 742.175C586.764 720.597 574.646 694.358 558.166 670.585C549.966 658.761 540.595 647.46 528.982 638.119C517.309 628.725 503.636 621.527 489.296 615.894C459.83 604.304 428.021 599.085 397.282 590.933C366.664 582.816 335.541 571.208 315.002 548.461C296.401 527.855 287.575 499.133 302.601 474.819C317.183 451.226 346.811 438.664 374.763 431.808C407.461 423.781 441.734 420.74 472.23 406.649C497.961 394.771 520.197 376.936 536.192 355.413C549.845 337.056 558.267 315.856 569.334 296.24C579.109 278.946 590.399 261.417 607.041 248.603C624.289 235.322 646.081 230.301 668.559 232.821C702.105 236.564 730.461 254.398 758.958 269.227C773.964 277.038 789.091 284.704 804.743 291.471C819.83 298.004 835.381 303.313 851.134 308.406C909.744 327.428 981.239 349.402 1003.29 407.53C1008.16 420.344 1009.59 434.057 1006.75 447.375C1003.84 460.944 996.911 473.542 988.005 484.771C968.98 508.815 941.836 525.839 916.308 543.908C903.443 553.014 890.921 562.516 879.874 573.368C879.046 574.196 880.399 575.402 881.227 574.592Z" fill="url(#paint31_linear)"/>
</g>
<defs>
<linearGradient id="paint0_linear" x1="448.78" y1="807.874" x2="184.392" y2="1024.05" gradientUnits="userSpaceOnUse">
<stop offset="0.1031" stop-color="#2F3E41"/>
<stop offset="0.3506" stop-color="#273132"/>
<stop offset="0.714" stop-color="#1E2422"/>
<stop offset="0.9948" stop-color="#1B1F1C"/>
</linearGradient>
<linearGradient id="paint1_linear" x1="839.619" y1="53.7036" x2="1293.85" y2="53.7036" gradientUnits="userSpaceOnUse">
<stop offset="0.1031" stop-color="#2F3E41"/>
<stop offset="0.3506" stop-color="#273132"/>
<stop offset="0.714" stop-color="#1E2422"/>
<stop offset="0.9948" stop-color="#1B1F1C"/>
</linearGradient>
<linearGradient id="paint2_linear" x1="-183.802" y1="123.755" x2="40.1307" y2="123.755" gradientUnits="userSpaceOnUse">
<stop stop-color="#5C5A44"/>
<stop offset="0.6103" stop-color="#3F4541"/>
<stop offset="1" stop-color="#313C40"/>
</linearGradient>
<linearGradient id="paint3_linear" x1="-149.417" y1="181.263" x2="85.0758" y2="181.263" gradientUnits="userSpaceOnUse">
<stop stop-color="#5C5A44"/>
<stop offset="0.6103" stop-color="#3F4541"/>
<stop offset="1" stop-color="#313C40"/>
</linearGradient>
<linearGradient id="paint4_linear" x1="1101.83" y1="835.884" x2="1543.05" y2="835.884" gradientUnits="userSpaceOnUse">
<stop stop-color="#5C5A44"/>
<stop offset="0.6103" stop-color="#3F4541"/>
<stop offset="1" stop-color="#313C40"/>
</linearGradient>
<linearGradient id="paint5_linear" x1="1182.83" y1="840.83" x2="1461.67" y2="840.83" gradientUnits="userSpaceOnUse">
<stop stop-color="#5C5A44"/>
<stop offset="0.6103" stop-color="#3F4541"/>
<stop offset="1" stop-color="#313C40"/>
</linearGradient>
<linearGradient id="paint6_linear" x1="1269.15" y1="847.345" x2="1440.6" y2="847.345" gradientUnits="userSpaceOnUse">
<stop stop-color="#5C5A44"/>
<stop offset="0.6103" stop-color="#3F4541"/>
<stop offset="1" stop-color="#313C40"/>
</linearGradient>
<linearGradient id="paint7_linear" x1="948.631" y1="321.155" x2="968.848" y2="321.155" gradientUnits="userSpaceOnUse">
<stop offset="0.0277" stop-color="#FFD24D"/>
<stop offset="0.7154" stop-color="#F6BE56"/>
<stop offset="1" stop-color="#F2B45A"/>
</linearGradient>
<linearGradient id="paint8_linear" x1="940.395" y1="321.154" x2="977.082" y2="321.154" gradientUnits="userSpaceOnUse">
<stop offset="0.0277" stop-color="#FFD24D"/>
<stop offset="0.7154" stop-color="#F6BE56"/>
<stop offset="1" stop-color="#F2B45A"/>
</linearGradient>
<linearGradient id="paint9_linear" x1="713.349" y1="765.474" x2="739.882" y2="765.474" gradientUnits="userSpaceOnUse">
<stop offset="0.0277" stop-color="#FFD24D"/>
<stop offset="0.7154" stop-color="#F6BE56"/>
<stop offset="1" stop-color="#F2B45A"/>
</linearGradient>
<linearGradient id="paint10_linear" x1="983.452" y1="348.312" x2="1031.77" y2="348.312" gradientUnits="userSpaceOnUse">
<stop offset="0.0277" stop-color="#FFD24D"/>
<stop offset="0.7154" stop-color="#F6BE56"/>
<stop offset="1" stop-color="#F2B45A"/>
</linearGradient>
<linearGradient id="paint11_linear" x1="303.505" y1="581.569" x2="325.866" y2="581.569" gradientUnits="userSpaceOnUse">
<stop offset="0.0277" stop-color="#FFD24D"/>
<stop offset="0.7154" stop-color="#F6BE56"/>
<stop offset="1" stop-color="#F2B45A"/>
</linearGradient>
<linearGradient id="paint12_linear" x1="884.608" y1="287.588" x2="905.722" y2="285.512" gradientUnits="userSpaceOnUse">
<stop offset="0.0277" stop-color="#FFD24D"/>
<stop offset="0.7154" stop-color="#F6BE56"/>
<stop offset="1" stop-color="#F2B45A"/>
</linearGradient>
<linearGradient id="paint13_linear" x1="889.642" y1="286.699" x2="922.004" y2="283.517" gradientUnits="userSpaceOnUse">
<stop offset="0.0277" stop-color="#FFD24D"/>
<stop offset="0.7154" stop-color="#F6BE56"/>
<stop offset="1" stop-color="#F2B45A"/>
</linearGradient>
<linearGradient id="paint14_linear" x1="884.076" y1="302.199" x2="917.286" y2="298.933" gradientUnits="userSpaceOnUse">
<stop offset="0.0277" stop-color="#FFD24D"/>
<stop offset="0.7154" stop-color="#F6BE56"/>
<stop offset="1" stop-color="#F2B45A"/>
</linearGradient>
<linearGradient id="paint15_linear" x1="335.809" y1="509.49" x2="355.361" y2="509.49" gradientUnits="userSpaceOnUse">
<stop offset="0.0277" stop-color="#FFD24D"/>
<stop offset="0.1674" stop-color="#EBC34D"/>
<stop offset="0.4544" stop-color="#B69D4D"/>
<stop offset="0.8604" stop-color="#625F4E"/>
<stop offset="1" stop-color="#44494E"/>
</linearGradient>
<linearGradient id="paint16_linear" x1="341.337" y1="508.161" x2="371.171" y2="508.161" gradientUnits="userSpaceOnUse">
<stop offset="0.0277" stop-color="#FFD24D"/>
<stop offset="0.1674" stop-color="#EBC34D"/>
<stop offset="0.4544" stop-color="#B69D4D"/>
<stop offset="0.8604" stop-color="#625F4E"/>
<stop offset="1" stop-color="#44494E"/>
</linearGradient>
<linearGradient id="paint17_linear" x1="335.809" y1="523.627" x2="366.418" y2="523.627" gradientUnits="userSpaceOnUse">
<stop offset="0.0277" stop-color="#FFD24D"/>
<stop offset="0.1674" stop-color="#EBC34D"/>
<stop offset="0.4544" stop-color="#B69D4D"/>
<stop offset="0.8604" stop-color="#625F4E"/>
<stop offset="1" stop-color="#44494E"/>
</linearGradient>
<linearGradient id="paint18_linear" x1="935.326" y1="614.937" x2="961.904" y2="612.323" gradientUnits="userSpaceOnUse">
<stop offset="0.0277" stop-color="#FFD24D"/>
<stop offset="0.7154" stop-color="#F6BE56"/>
<stop offset="1" stop-color="#F2B45A"/>
</linearGradient>
<linearGradient id="paint19_linear" x1="941.757" y1="613.801" x2="982.702" y2="609.775" gradientUnits="userSpaceOnUse">
<stop offset="0.0277" stop-color="#FFD24D"/>
<stop offset="0.7154" stop-color="#F6BE56"/>
<stop offset="1" stop-color="#F2B45A"/>
</linearGradient>
<linearGradient id="paint20_linear" x1="934.647" y1="633.6" x2="976.676" y2="629.467" gradientUnits="userSpaceOnUse">
<stop offset="0.0277" stop-color="#FFD24D"/>
<stop offset="0.7154" stop-color="#F6BE56"/>
<stop offset="1" stop-color="#F2B45A"/>
</linearGradient>
<linearGradient id="paint21_linear" x1="885.565" y1="199.551" x2="886.854" y2="226.254" gradientUnits="userSpaceOnUse">
<stop offset="0.0277" stop-color="#FFD24D"/>
<stop offset="0.7154" stop-color="#F6BE56"/>
<stop offset="1" stop-color="#F2B45A"/>
</linearGradient>
<linearGradient id="paint22_linear" x1="885.164" y1="206.137" x2="887.154" y2="247.363" gradientUnits="userSpaceOnUse">
<stop offset="0.0277" stop-color="#FFD24D"/>
<stop offset="0.7154" stop-color="#F6BE56"/>
<stop offset="1" stop-color="#F2B45A"/>
</linearGradient>
<linearGradient id="paint23_linear" x1="908.864" y1="195.904" x2="910.907" y2="238.225" gradientUnits="userSpaceOnUse">
<stop offset="0.0277" stop-color="#FFD24D"/>
<stop offset="0.7154" stop-color="#F6BE56"/>
<stop offset="1" stop-color="#F2B45A"/>
</linearGradient>
<linearGradient id="paint24_linear" x1="323.511" y1="597.825" x2="362.372" y2="594.004" gradientUnits="userSpaceOnUse">
<stop offset="0.0277" stop-color="#FFD24D"/>
<stop offset="0.1674" stop-color="#EBC34D"/>
<stop offset="0.4544" stop-color="#B69D4D"/>
<stop offset="0.8604" stop-color="#625F4E"/>
<stop offset="1" stop-color="#44494E"/>
</linearGradient>
<linearGradient id="paint25_linear" x1="333.082" y1="596.135" x2="393.324" y2="590.211" gradientUnits="userSpaceOnUse">
<stop offset="0.0277" stop-color="#FFD24D"/>
<stop offset="0.1674" stop-color="#EBC34D"/>
<stop offset="0.4544" stop-color="#B69D4D"/>
<stop offset="0.8604" stop-color="#625F4E"/>
<stop offset="1" stop-color="#44494E"/>
</linearGradient>
<linearGradient id="paint26_linear" x1="322.501" y1="625.601" x2="384.356" y2="619.518" gradientUnits="userSpaceOnUse">
<stop offset="0.0277" stop-color="#FFD24D"/>
<stop offset="0.1674" stop-color="#EBC34D"/>
<stop offset="0.4544" stop-color="#B69D4D"/>
<stop offset="0.8604" stop-color="#625F4E"/>
<stop offset="1" stop-color="#44494E"/>
</linearGradient>
<linearGradient id="paint27_linear" x1="390.15" y1="716.028" x2="463.243" y2="716.028" gradientUnits="userSpaceOnUse">
<stop offset="0.0277" stop-color="#FFD24D"/>
<stop offset="0.7154" stop-color="#FFBE56"/>
<stop offset="1" stop-color="#FFB45A"/>
</linearGradient>
<linearGradient id="paint28_linear" x1="949.154" y1="475.446" x2="966.888" y2="494.64" gradientUnits="userSpaceOnUse">
<stop offset="0.0277" stop-color="#FFD24D"/>
<stop offset="0.7154" stop-color="#F6BE56"/>
<stop offset="1" stop-color="#F2B45A"/>
</linearGradient>
<linearGradient id="paint29_linear" x1="300.861" y1="623.963" x2="1014.92" y2="332.298" gradientUnits="userSpaceOnUse">
<stop offset="0.0277" stop-color="#FFD24D"/>
<stop offset="0.0356" stop-color="#F7CC4C"/>
<stop offset="0.0797" stop-color="#CEAE4A"/>
<stop offset="0.1292" stop-color="#A89348"/>
<stop offset="0.1831" stop-color="#887B45"/>
<stop offset="0.2427" stop-color="#6C6744"/>
<stop offset="0.3099" stop-color="#565742"/>
<stop offset="0.3884" stop-color="#454B41"/>
<stop offset="0.4856" stop-color="#3A4241"/>
<stop offset="0.6218" stop-color="#333D40"/>
<stop offset="1" stop-color="#313C40"/>
</linearGradient>
<linearGradient id="paint30_linear" x1="198.972" y1="492.577" x2="1103.93" y2="492.577" gradientUnits="userSpaceOnUse">
<stop stop-color="#5C5A44"/>
<stop offset="0.6103" stop-color="#3F4541"/>
<stop offset="1" stop-color="#313C40"/>
</linearGradient>
<linearGradient id="paint31_linear" x1="479.117" y1="310.452" x2="820.035" y2="693.044" gradientUnits="userSpaceOnUse">
<stop stop-color="#313C40"/>
<stop offset="0.251" stop-color="#333E40"/>
<stop offset="0.397" stop-color="#3C4441"/>
<stop offset="0.5161" stop-color="#4A4E42"/>
<stop offset="0.6208" stop-color="#5E5D43"/>
<stop offset="0.716" stop-color="#786F44"/>
<stop offset="0.8042" stop-color="#988746"/>
<stop offset="0.8873" stop-color="#BDA249"/>
<stop offset="0.964" stop-color="#E8C14C"/>
<stop offset="1" stop-color="#FFD24D"/>
</linearGradient>
<clipPath id="clip0">
<rect width="1440" height="1024" fill="white"/>
</clipPath>
</defs>
</svg>
